<svg width="24" height="22" viewBox="0 0 24 22" fill="none" xmlns="http://www.w3.org/2000/svg">
<path d="M13.8436 1.42344C13.5373 0.865625 12.8061 0.5 11.9998 0.5C11.1936 0.5 10.4623 0.865625 10.1561 1.42344L2.65608 14.9234L0.156078 19.4234C-0.268922 20.1875 0.212329 21.0641 1.23108 21.3828C2.24983 21.7016 3.41858 21.3406 3.84358 20.5766L5.83108 17H18.1623L20.1498 20.5766C20.5748 21.3406 21.7436 21.7016 22.7623 21.3828C23.7811 21.0641 24.2623 20.1875 23.8373 19.4234L21.3373 14.9234L13.8373 1.42344H13.8436ZM16.4998 14H7.49983L11.9998 5.9L16.4998 14Z" fill="#FFD12C"/>
</svg>
