<svg width="21" height="21" viewBox="0 0 21 21" fill="none" xmlns="http://www.w3.org/2000/svg">
<path d="M10.5 14.146C9.53308 14.146 8.60575 13.7619 7.92202 13.0782C7.2383 12.3944 6.85418 11.4671 6.85418 10.5002C6.85418 9.53323 7.2383 8.6059 7.92202 7.92217C8.60575 7.23845 9.53308 6.85433 10.5 6.85433C11.467 6.85433 12.3943 7.23845 13.078 7.92217C13.7617 8.6059 14.1458 9.53323 14.1458 10.5002C14.1458 11.4671 13.7617 12.3944 13.078 13.0782C12.3943 13.7619 11.467 14.146 10.5 14.146ZM18.2396 11.5106C18.2813 11.1772 18.3125 10.8439 18.3125 10.5002C18.3125 10.1564 18.2813 9.81267 18.2396 9.4585L20.4375 7.76058C20.6354 7.60433 20.6875 7.32308 20.5625 7.09391L18.4792 3.48975C18.3542 3.26058 18.0729 3.16683 17.8438 3.26058L15.25 4.30225C14.7083 3.896 14.1458 3.54183 13.4896 3.28142L13.1042 0.520998C13.083 0.398308 13.0191 0.287068 12.9238 0.206989C12.8285 0.126911 12.7079 0.083163 12.5833 0.083498H8.41668C8.15627 0.083498 7.93752 0.270998 7.89585 0.520998L7.51043 3.28142C6.85418 3.54183 6.29168 3.896 5.75002 4.30225L3.15627 3.26058C2.9271 3.16683 2.64585 3.26058 2.52085 3.48975L0.437516 7.09391C0.302099 7.32308 0.364599 7.60433 0.562516 7.76058L2.76043 9.4585C2.71877 9.81267 2.68752 10.1564 2.68752 10.5002C2.68752 10.8439 2.71877 11.1772 2.76043 11.5106L0.562516 13.2397C0.364599 13.396 0.302099 13.6772 0.437516 13.9064L2.52085 17.5106C2.64585 17.7397 2.9271 17.8231 3.15627 17.7397L5.75002 16.6877C6.29168 17.1043 6.85418 17.4585 7.51043 17.7189L7.89585 20.4793C7.93752 20.7293 8.15627 20.9168 8.41668 20.9168H12.5833C12.8438 20.9168 13.0625 20.7293 13.1042 20.4793L13.4896 17.7189C14.1458 17.4481 14.7083 17.1043 15.25 16.6877L17.8438 17.7397C18.0729 17.8231 18.3542 17.7397 18.4792 17.5106L20.5625 13.9064C20.6875 13.6772 20.6354 13.396 20.4375 13.2397L18.2396 11.5106Z" fill="#FFD12C"/>
</svg>
