<svg width="25" height="17" viewBox="0 0 25 17" fill="none" xmlns="http://www.w3.org/2000/svg">
<path fill-rule="evenodd" clip-rule="evenodd" d="M0 1.85938C0 1.54857 0.123465 1.2505 0.343234 1.03073C0.563003 0.810965 0.861074 0.6875 1.17188 0.6875H23.8281C24.1389 0.6875 24.437 0.810965 24.6568 1.03073C24.8765 1.2505 25 1.54857 25 1.85938C25 2.17018 24.8765 2.46825 24.6568 2.68802C24.437 2.90779 24.1389 3.03125 23.8281 3.03125H1.17188C0.861074 3.03125 0.563003 2.90779 0.343234 2.68802C0.123465 2.46825 0 2.17018 0 1.85938ZM0 8.5C0 8.1892 0.123465 7.89113 0.343234 7.67136C0.563003 7.45159 0.861074 7.32812 1.17188 7.32812H23.8281C24.1389 7.32812 24.437 7.45159 24.6568 7.67136C24.8765 7.89113 25 8.1892 25 8.5C25 8.8108 24.8765 9.10887 24.6568 9.32864C24.437 9.54841 24.1389 9.67188 23.8281 9.67188H1.17188C0.861074 9.67188 0.563003 9.54841 0.343234 9.32864C0.123465 9.10887 0 8.8108 0 8.5ZM1.17188 13.9688C0.861074 13.9688 0.563003 14.0922 0.343234 14.312C0.123465 14.5318 0 14.8298 0 15.1406C0 15.4514 0.123465 15.7495 0.343234 15.9693C0.563003 16.189 0.861074 16.3125 1.17188 16.3125H23.8281C24.1389 16.3125 24.437 16.189 24.6568 15.9693C24.8765 15.7495 25 15.4514 25 15.1406C25 14.8298 24.8765 14.5318 24.6568 14.312C24.437 14.0922 24.1389 13.9688 23.8281 13.9688H1.17188Z" fill="#FFD12C"/>
</svg>
