<svg width="23" height="22" viewBox="0 0 23 22" fill="none" xmlns="http://www.w3.org/2000/svg">
<path d="M22.4544 8.85976L16.5041 2.86726C14.7446 1.11138 12.3603 0.125244 9.87456 0.125244C7.38879 0.125244 5.00455 1.11138 3.24503 2.86726L3.23284 2.88038L1.94097 4.21351C1.73335 4.42784 1.61938 4.71586 1.62413 5.01422C1.62888 5.31258 1.75195 5.59683 1.96628 5.80445C2.18061 6.01206 2.46863 6.12603 2.76699 6.12128C3.06535 6.11654 3.3496 5.99346 3.55722 5.77913L4.84253 4.45257C5.26806 4.0272 5.74595 3.65768 6.26472 3.35288L10.1563 7.25007L1.42347 15.9838C1.24928 16.1579 1.1111 16.3647 1.01682 16.5922C0.922547 16.8197 0.874023 17.0636 0.874023 17.3099C0.874023 17.5562 0.922547 17.8001 1.01682 18.0276C1.1111 18.2552 1.24928 18.4619 1.42347 18.636L3.36315 20.5757C3.71477 20.9272 4.1916 21.1247 4.68878 21.1247C5.18596 21.1247 5.66279 20.9272 6.0144 20.5757L14.75 11.8438L14.8916 11.9854L17.1088 14.2035C17.2829 14.3777 17.4896 14.5159 17.7172 14.6102C17.9447 14.7044 18.1886 14.753 18.4349 14.753C18.6812 14.753 18.925 14.7044 19.1526 14.6102C19.3801 14.5159 19.5868 14.3777 19.761 14.2035L22.4507 11.5129C22.6252 11.339 22.7638 11.1324 22.8585 10.9049C22.9532 10.6774 23.0021 10.4335 23.0024 10.1871C23.0028 9.94069 22.9546 9.69664 22.8605 9.46888C22.7665 9.24113 22.6285 9.03414 22.4544 8.85976ZM4.68878 18.7194L3.28253 17.3132L9.12503 11.4688L10.5313 12.8751L4.68878 18.7194ZM12.125 11.2813L10.7188 9.87507L12.5478 8.04601C12.6527 7.94149 12.7359 7.8173 12.7927 7.68055C12.8495 7.54381 12.8787 7.3972 12.8787 7.24913C12.8787 7.10107 12.8495 6.95446 12.7927 6.81771C12.7359 6.68097 12.6527 6.55677 12.5478 6.45226L8.58503 2.49132C9.71959 2.28165 10.8881 2.35087 11.99 2.69301C13.0919 3.03515 14.0941 3.63997 14.9103 4.45538L17.8578 7.42445L15.6875 9.59382L15.546 9.45226C15.4414 9.34738 15.3173 9.26416 15.1805 9.20738C15.0438 9.1506 14.8972 9.12137 14.7491 9.12137C14.601 9.12137 14.4544 9.1506 14.3177 9.20738C14.1809 9.26416 14.0567 9.34738 13.9522 9.45226L12.125 11.2813ZM18.4363 12.3416L17.2813 11.1876L19.446 9.02288L20.5991 10.1844L18.4363 12.3416Z" fill="#FFD12C"/>
</svg>
