<svg width="18" height="18" viewBox="0 0 18 18" fill="none" xmlns="http://www.w3.org/2000/svg">
<path d="M8.16675 13.1665H9.83341V8.1665H8.16675V13.1665ZM9.00008 6.49984C9.23619 6.49984 9.43425 6.41984 9.59425 6.25984C9.75425 6.09984 9.83397 5.90206 9.83341 5.6665C9.83341 5.43039 9.75341 5.23234 9.59341 5.07234C9.43341 4.91234 9.23564 4.83261 9.00008 4.83317C8.76397 4.83317 8.56591 4.91317 8.40591 5.07317C8.24591 5.23317 8.16619 5.43095 8.16675 5.6665C8.16675 5.90262 8.24675 6.10067 8.40675 6.26067C8.56675 6.42067 8.76453 6.50039 9.00008 6.49984ZM9.00008 17.3332C7.8473 17.3332 6.76397 17.1143 5.75008 16.6765C4.73619 16.2387 3.85425 15.6451 3.10425 14.8957C2.35425 14.1457 1.76064 13.2637 1.32341 12.2498C0.886193 11.2359 0.667304 10.1526 0.666748 8.99984C0.666748 7.84706 0.885637 6.76373 1.32341 5.74984C1.76119 4.73595 2.3548 3.854 3.10425 3.104C3.85425 2.354 4.73619 1.76039 5.75008 1.32317C6.76397 0.885948 7.8473 0.667059 9.00008 0.666504C10.1529 0.666504 11.2362 0.885393 12.2501 1.32317C13.264 1.76095 14.1459 2.35456 14.8959 3.104C15.6459 3.854 16.2398 4.73595 16.6776 5.74984C17.1154 6.76373 17.334 7.84706 17.3334 8.99984C17.3334 10.1526 17.1145 11.2359 16.6767 12.2498C16.239 13.2637 15.6454 14.1457 14.8959 14.8957C14.1459 15.6457 13.264 16.2396 12.2501 16.6773C11.2362 17.1151 10.1529 17.3337 9.00008 17.3332ZM9.00008 15.6665C10.8612 15.6665 12.4376 15.0207 13.7292 13.729C15.0209 12.4373 15.6667 10.8609 15.6667 8.99984C15.6667 7.13873 15.0209 5.56234 13.7292 4.27067C12.4376 2.979 10.8612 2.33317 9.00008 2.33317C7.13897 2.33317 5.56258 2.979 4.27091 4.27067C2.97925 5.56234 2.33341 7.13873 2.33341 8.99984C2.33341 10.8609 2.97925 12.4373 4.27091 13.729C5.56258 15.0207 7.13897 15.6665 9.00008 15.6665Z" fill="#FFD12C"/>
</svg>
