<svg width="18" height="18" viewBox="0 0 18 18" fill="none" xmlns="http://www.w3.org/2000/svg">
<path fill-rule="evenodd" clip-rule="evenodd" d="M0.25 4C0.25 3.80109 0.329018 3.61032 0.46967 3.46967C0.610322 3.32902 0.801088 3.25 1 3.25H17C17.1989 3.25 17.3897 3.32902 17.5303 3.46967C17.671 3.61032 17.75 3.80109 17.75 4C17.75 4.19891 17.671 4.38968 17.5303 4.53033C17.3897 4.67098 17.1989 4.75 17 4.75H1C0.801088 4.75 0.610322 4.67098 0.46967 4.53033C0.329018 4.38968 0.25 4.19891 0.25 4ZM0.25 9C0.25 8.80109 0.329018 8.61032 0.46967 8.46967C0.610322 8.32902 0.801088 8.25 1 8.25H12C12.1989 8.25 12.3897 8.32902 12.5303 8.46967C12.671 8.61032 12.75 8.80109 12.75 9C12.75 9.19891 12.671 9.38968 12.5303 9.53033C12.3897 9.67098 12.1989 9.75 12 9.75H1C0.801088 9.75 0.610322 9.67098 0.46967 9.53033C0.329018 9.38968 0.25 9.19891 0.25 9ZM0.25 14C0.25 13.8011 0.329018 13.6103 0.46967 13.4697C0.610322 13.329 0.801088 13.25 1 13.25H6C6.19891 13.25 6.38968 13.329 6.53033 13.4697C6.67098 13.6103 6.75 13.8011 6.75 14C6.75 14.1989 6.67098 14.3897 6.53033 14.5303C6.38968 14.671 6.19891 14.75 6 14.75H1C0.801088 14.75 0.610322 14.671 0.46967 14.5303C0.329018 14.3897 0.25 14.1989 0.25 14Z" fill="#FFD12C"/>
</svg>
