<svg width="20" height="16" viewBox="0 0 20 16" fill="none" xmlns="http://www.w3.org/2000/svg">
<path d="M1 1H19" stroke="#FFD12C" stroke-width="2" stroke-linecap="round"/>
<path fill-rule="evenodd" clip-rule="evenodd" d="M17 1H3V12.8C3 13.92 3 14.48 3.218 14.908C3.40974 15.2843 3.71569 15.5903 4.092 15.782C4.52 16 5.08 16 6.2 16H13.8C14.92 16 15.48 16 15.908 15.782C16.2843 15.5903 16.5903 15.2843 16.782 14.908C17 14.48 17 13.92 17 12.8V1ZM9 12V8.414L7.707 9.707C7.5184 9.88916 7.2658 9.98995 7.0036 9.98767C6.7414 9.9854 6.49059 9.88023 6.30518 9.69482C6.11977 9.50941 6.0146 9.2586 6.01233 8.9964C6.01005 8.7342 6.11084 8.4816 6.293 8.293L9.187 5.399C9.205 5.381 9.224 5.36333 9.244 5.346C9.33769 5.23728 9.45372 5.15005 9.58419 5.09026C9.71466 5.03046 9.85648 4.99951 10 4.99951C10.1435 4.99951 10.2853 5.03046 10.4158 5.09026C10.5463 5.15005 10.6623 5.23728 10.756 5.346C10.776 5.36333 10.795 5.381 10.813 5.399L13.707 8.293C13.8892 8.4816 13.99 8.7342 13.9877 8.9964C13.9854 9.2586 13.8802 9.50941 13.6948 9.69482C13.5094 9.88023 13.2586 9.9854 12.9964 9.98767C12.7342 9.98995 12.4816 9.88916 12.293 9.707L11 8.414V12C11 12.2652 10.8946 12.5196 10.7071 12.7071C10.5196 12.8946 10.2652 13 10 13C9.73478 13 9.48043 12.8946 9.29289 12.7071C9.10536 12.5196 9 12.2652 9 12Z" fill="#FFD12C"/>
</svg>
