<svg width="26" height="19" viewBox="0 0 26 19" fill="none" xmlns="http://www.w3.org/2000/svg">
<path d="M17 8.9V7.2C17.55 6.96667 18.1127 6.79167 18.688 6.675C19.2633 6.55833 19.8673 6.5 20.5 6.5C20.9333 6.5 21.3583 6.53333 21.775 6.6C22.1917 6.66667 22.6 6.75 23 6.85V8.45C22.6 8.3 22.1957 8.18767 21.787 8.113C21.3783 8.03833 20.9493 8.00067 20.5 8C19.8667 8 19.2583 8.07933 18.675 8.238C18.0917 8.39667 17.5333 8.61733 17 8.9ZM17 14.4V12.7C17.55 12.4667 18.1127 12.2917 18.688 12.175C19.2633 12.0583 19.8673 12 20.5 12C20.9333 12 21.3583 12.0333 21.775 12.1C22.1917 12.1667 22.6 12.25 23 12.35V13.95C22.6 13.8 22.1957 13.6873 21.787 13.612C21.3783 13.5367 20.9493 13.4993 20.5 13.5C19.8667 13.5 19.2583 13.575 18.675 13.725C18.0917 13.875 17.5333 14.1 17 14.4ZM17 11.65V9.95C17.55 9.71667 18.1127 9.54167 18.688 9.425C19.2633 9.30833 19.8673 9.25 20.5 9.25C20.9333 9.25 21.3583 9.28333 21.775 9.35C22.1917 9.41667 22.6 9.5 23 9.6V11.2C22.6 11.05 22.1957 10.9373 21.787 10.862C21.3783 10.7867 20.9493 10.7493 20.5 10.75C19.8667 10.75 19.2583 10.8293 18.675 10.988C18.0917 11.1467 17.5333 11.3673 17 11.65ZM9.5 15C10.2833 15 11.046 15.0877 11.788 15.263C12.53 15.4383 13.2673 15.7007 14 16.05V6.2C13.3167 5.8 12.5917 5.5 11.825 5.3C11.0583 5.1 10.2833 5 9.5 5C8.9 5 8.304 5.05833 7.712 5.175C7.12 5.29167 6.54933 5.46667 6 5.7V15.6C6.58333 15.4 7.16267 15.25 7.738 15.15C8.31333 15.05 8.90067 15 9.5 15ZM16 16.05C16.7333 15.7 17.471 15.4377 18.213 15.263C18.955 15.0883 19.7173 15.0007 20.5 15C21.1 15 21.6877 15.05 22.263 15.15C22.8383 15.25 23.4173 15.4 24 15.6V5.7C23.45 5.46667 22.879 5.29167 22.287 5.175C21.695 5.05833 21.0993 5 20.5 5C19.7167 5 18.9417 5.1 18.175 5.3C17.4083 5.5 16.6833 5.8 16 6.2V16.05ZM15 19C14.2 18.3667 13.3333 17.875 12.4 17.525C11.4667 17.175 10.5 17 9.5 17C8.8 17 8.11267 17.0917 7.438 17.275C6.76333 17.4583 6.11733 17.7167 5.5 18.05C5.15 18.2333 4.81267 18.225 4.488 18.025C4.16333 17.825 4.00067 17.5333 4 17.15V5.1C4 4.91667 4.046 4.74167 4.138 4.575C4.23 4.40833 4.36733 4.28333 4.55 4.2C5.31667 3.8 6.11667 3.5 6.95 3.3C7.78333 3.1 8.63333 3 9.5 3C10.4667 3 11.4127 3.125 12.338 3.375C13.2633 3.625 14.1507 4 15 4.5C15.85 4 16.7377 3.625 17.663 3.375C18.5883 3.125 19.534 3 20.5 3C21.3667 3 22.2167 3.1 23.05 3.3C23.8833 3.5 24.6833 3.8 25.45 4.2C25.6333 4.28333 25.771 4.40833 25.863 4.575C25.955 4.74167 26.0007 4.91667 26 5.1V17.15C26 17.5333 25.8377 17.825 25.513 18.025C25.1883 18.225 24.8507 18.2333 24.5 18.05C23.8833 17.7167 23.2377 17.4583 22.563 17.275C21.8883 17.0917 21.2007 17 20.5 17C19.5 17 18.5333 17.175 17.6 17.525C16.6667 17.875 15.8 18.3667 15 19Z" fill="#FFD12C"/>
<path d="M5 2.85714H2.85714V5H2.14286V2.85714H0V2.14286H2.14286V0H2.85714V2.14286H5V2.85714Z" fill="#FFD12C"/>
</svg>
