<svg width="19" height="19" viewBox="0 0 19 19" fill="none" xmlns="http://www.w3.org/2000/svg">
<path d="M18.2497 3.64508e-09H12.2497C12.1348 -1.13191e-05 12.0215 0.0263566 11.9185 0.0770702C11.8154 0.127784 11.7254 0.201488 11.6553 0.2925L5.65532 8.09344L4.7497 7.18969C4.61039 7.05022 4.44495 6.93958 4.26286 6.8641C4.08076 6.78861 3.88557 6.74976 3.68845 6.74976C3.49132 6.74976 3.29613 6.78861 3.11404 6.8641C2.93194 6.93958 2.76651 7.05022 2.6272 7.18969L1.43751 8.38031C1.29818 8.5196 1.18766 8.68498 1.11226 8.86699C1.03686 9.049 0.998047 9.24408 0.998047 9.44109C0.998047 9.63811 1.03686 9.83319 1.11226 10.0152C1.18766 10.1972 1.29818 10.3626 1.43751 10.5019L3.31251 12.3769L0.687508 15.0019C0.548184 15.1412 0.437664 15.3065 0.36226 15.4886C0.286857 15.6706 0.248047 15.8656 0.248047 16.0627C0.248047 16.2597 0.286857 16.4548 0.36226 16.6368C0.437664 16.8188 0.548184 16.9841 0.687508 17.1234L1.8772 18.3122C2.15847 18.5933 2.53985 18.7512 2.93751 18.7512C3.33516 18.7512 3.71654 18.5933 3.99782 18.3122L6.62282 15.6872L8.49782 17.5622C8.63713 17.7017 8.80256 17.8123 8.98466 17.8878C9.16676 17.9633 9.36195 18.0021 9.55907 18.0021C9.75619 18.0021 9.95138 17.9633 10.1335 17.8878C10.3156 17.8123 10.481 17.7017 10.6203 17.5622L11.81 16.3716C11.9493 16.2323 12.0599 16.0669 12.1353 15.8849C12.2107 15.7029 12.2495 15.5078 12.2495 15.3108C12.2495 15.1138 12.2107 14.9187 12.1353 14.7367C12.0599 14.5547 11.9493 14.3893 11.81 14.25L10.9063 13.3463L18.7072 7.34625C18.7985 7.276 18.8723 7.18567 18.923 7.08227C18.9738 6.97887 19 6.86517 18.9997 6.75V0.75C18.9997 0.551088 18.9207 0.360322 18.78 0.21967C18.6394 0.0790178 18.4486 3.64508e-09 18.2497 3.64508e-09ZM2.93938 17.25L1.7497 16.0613L4.3747 13.4363L5.56345 14.625L2.93938 17.25ZM9.55907 16.5L2.4997 9.44156L3.69032 8.25L10.7497 15.3103L9.55907 16.5ZM17.4997 6.38062L9.83657 12.2756L8.81095 11.25L13.5303 6.53063C13.6709 6.38989 13.7499 6.19907 13.7498 6.00014C13.7497 5.8012 13.6706 5.61045 13.5299 5.46984C13.3891 5.32924 13.1983 5.2503 12.9994 5.25038C12.8004 5.25047 12.6097 5.32958 12.4691 5.47031L7.7497 10.1887L6.72501 9.16313L12.6191 1.5H17.4997V6.38062Z" fill="#FFD12C"/>
</svg>
